<svg enable-background="new 0 0 412 80" viewBox="0 0 412 80" xmlns="http://www.w3.org/2000/svg"><path d="m32.1 14.9c-.1-.4-.5-.7-1-.7h-12.7c-.4 0-.8.3-1 .7l-13.2 43.1c-.1.3 0 .6.2.9s.5.4.8.4h10.1c.4 0 .8-.3 1-.7l2.9-10.3h10.8l3.1 10.4c.1.4.5.7 1 .7h10.5c.3 0 .6-.2.8-.4.2-.3.2-.6.1-.9zm-4.1 24.1h-6.9l2.2-7.9c.4-1.4.8-3 1.1-4.6.4 1.6.8 3.2 1.2 4.6z"/><path d="m90.4 26h-6v-8c0-.3-.1-.6-.4-.8-.2-.2-.6-.3-.8-.2l-9.5 2.2c-.5.1-.8.5-.8 1v5.8h-3.2c-.3 0-.5.1-.7.3-2-.6-4.6-1-7-1-11.3 0-18.9 7.1-18.9 17.6 0 10.3 6.9 17 17.6 17 3.5 0 7-.6 9.1-1.5.4-.2.7-.6.6-1.1l-1.2-7.2c0-.3-.2-.6-.5-.7-.3-.2-.6-.2-.9-.1-1.5.6-3.2.9-5.2.9-3.7 0-7.6-2-7.6-7.8 0-2.3.7-4.3 2.1-5.7 1.3-1.3 3.2-2 5.3-2 2 0 3.7.3 5 .9.3.1.6.1.9 0s.5-.4.5-.7l.1-.3c.2.3.5.5.8.5h3.2v11.9c0 4.6 1 7.9 3 10 1.8 1.9 4.7 3 8 3 2.8 0 5.3-.3 6.7-.9.4-.2.6-.5.6-.9l-.1-7.4c0-.3-.1-.6-.4-.8s-.5-.3-.8-.2c-.8.2-1.7.2-2.6.2-1.9 0-2.8-.7-2.8-4.5v-10.3h6c.6 0 1-.4 1-1v-7.2c-.1-.5-.5-1-1.1-1z"/><path d="m102.6 26h-9.7c-.6 0-1 .4-1 1v31.3c0 .6.4 1 1 1h9.7c.6 0 1-.4 1-1v-31.3c0-.5-.4-1-1-1z"/><path d="m97.7 12.4c-1.8 0-3.4.6-4.5 1.8-1.1 1.1-1.6 2.6-1.6 4.1 0 1.6.5 3 1.6 4.1s2.7 1.8 4.5 1.8c3.6 0 6.2-2.5 6.2-5.9-.1-3.5-2.6-5.9-6.2-5.9z"/><path d="m122.1 25.3c-10.6 0-17.7 7.1-17.7 17.6 0 10.2 6.9 17.1 17.2 17.1 8.7 0 17.5-5.5 17.5-17.7 0-10-7-17-17-17zm-.2 8.9c3.8 0 5.2 4.5 5.2 8.4 0 5.1-2 8.4-5.2 8.4-4 0-5.4-4.3-5.4-8.4 0-1.4.2-8.4 5.4-8.4z"/><path d="m159.4 25.3c-4 0-7.1 1.7-9.1 3.7l-.2-2.1c-.1-.5-.5-.9-1-.9h-8.4c-.3 0-.5.1-.7.3s-.3.5-.3.7c.1 2.7.3 6 .3 9.9v21.3c0 .6.4 1 1 1h9.7c.6 0 1-.4 1-1v-18c0-.8.1-1.6.3-2.1.2-.7 1.3-3 4-3 1 0 3.9 0 3.9 5.8v17.3c0 .6.4 1 1 1h9.7c.6 0 1-.4 1-1v-18.4c0-9.1-4.5-14.5-12.2-14.5z"/><path d="m266.7 26h-9.4c-.5 0-1 .4-1 .9l-.1 1.2c-1.9-1.9-4.7-2.9-8-2.9-6 0-12.1 4.1-14.1 12-1.3-6.3-5.6-12-14.5-12-5.5 0-11.3 2.6-14.4 8v-6.9c0-.5-.3-.9-.8-1-.8-.1-1.3-.1-2.2-.1-2.7 0-5.8 1.3-7.9 4.2l-.1-2.6c0-.5-.5-.9-1-.9h-8.4c-.3 0-.5.1-.7.3s-.3.5-.3.7c.1 2.8.3 5.7.3 10.3v21c0 .6.4 1 1 1h9.7c.6 0 1-.4 1-1v-15.7c0-.7.1-1.4.2-2 .6-2.6 2.6-4.1 5.7-4.1.9 0 1.6.1 2.2.2-.6 1.9-1 4.1-1 6.5 0 10.4 6.8 16.9 17.7 16.9 4.4 0 8.4-.7 11.7-2 .4-.2.7-.6.6-1.1l-1.3-6.6c-.1-.3-.2-.5-.5-.7s-.5-.2-.8-.1c-2.7.9-5.3 1.2-8.3 1.2-3.2 0-6.7-1.1-7.6-4h19c.2 0 .3-.1.5-.1 1.2 7 5.9 13.4 13.7 13.4 3.4 0 6.3-1 8.4-3v14c0 .6.4 1 1 1h9.7c.6 0 1-.4 1-1v-34.6c0-2.2.1-4.4.1-6.5 0-1 .1-1.9.1-2.9 0-.3-.1-.5-.3-.7-.4-.2-.6-.3-.9-.3zm-10.9 14.2v4.7c0 .7-.1 1.4-.2 1.9-.5 2.2-2.4 3.7-4.7 3.7-3.4 0-5.6-2.9-5.6-7.6 0-1.8.4-7.8 5.7-7.8 2.6 0 4.2 2 4.6 3.9.1.2.2.7.2 1.2zm-36.8-6.4c3.4 0 4.2 2.7 4.4 4.3h-9.3c.6-1.9 2-4.3 4.9-4.3z"/><path d="m301.6 27c0-.6-.4-1-1-1h-9.8c-.6 0-1 .4-1 1v18.6c0 .8-.1 1.4-.2 1.7-.3.7-1.4 2.8-3.9 2.8-1 0-3.9 0-3.9-6.3v-16.8c0-.6-.4-1-1-1h-9.8c-.6 0-1 .4-1 1v18.4c0 9.3 4.4 14.6 12 14.6 4.6 0 7.5-2 9.2-3.8l.2 2.2c.1.5.5.9 1 .9h8.4c.3 0 .5-.1.7-.3s.3-.5.3-.7c-.1-2.4-.3-5.8-.3-10v-21.3z"/><path d="m310 12.4c-1.8 0-3.4.6-4.5 1.8-1.1 1.1-1.6 2.6-1.6 4.1 0 1.6.5 3 1.6 4.1s2.7 1.8 4.5 1.8c3.6 0 6.2-2.5 6.2-5.9-.1-3.5-2.6-5.9-6.2-5.9z"/><path d="m314.9 26h-9.7c-.6 0-1 .4-1 1v31.3c0 .6.4 1 1 1h9.7c.6 0 1-.4 1-1v-31.3c0-.5-.5-1-1-1z"/><path d="m402 49v-36.1c0-.6-.4-1-1-1h-9.7c-.6 0-1 .4-1 1v14.6c-1.8-1.4-4.4-2.1-7.4-2.1-3.8 0-7.4 1.5-10.1 4.2-2 2.1-3.5 4.7-4.2 7.7-1.4-6.2-5.6-11.9-14.4-11.9-5.5 0-11.3 2.6-14.4 8v-6.9c0-.5-.3-.9-.8-1-.8-.1-1.3-.1-2.2-.1-2.7 0-5.8 1.3-7.9 4.2l-.1-2.6c0-.5-.5-.9-1-.9h-8.4c-.3 0-.5.1-.7.3s-.3.5-.3.7c.1 2.8.3 5.7.3 10.3v21c0 .6.4 1 1 1h9.7c.6 0 1-.4 1-1v-15.9c0-.7.1-1.4.2-2 .6-2.6 2.6-4.1 5.7-4.1.9 0 1.6.1 2.2.2-.6 1.9-1 4.1-1 6.5 0 10.4 6.8 16.9 17.7 16.9 4.4 0 8.4-.7 11.7-2 .4-.2.7-.6.6-1.1l-1.3-6.6c-.1-.3-.2-.5-.5-.7s-.5-.2-.8-.1c-2.7.9-5.3 1.2-8.3 1.2-3.2 0-6.7-1.1-7.6-4h19c.2 0 .3-.1.5-.1 1.3 7.9 6.8 13.4 14.1 13.4 3.7 0 6.9-1.4 9.2-3.8l.2 2.2c0 .5.5.9 1 .9h8.6c.3 0 .5-.1.7-.3s.3-.5.3-.7c-.4-2.1-.6-5.8-.6-9.3zm-11.7-8.7v4.1c0 .8-.1 1.4-.2 2-.5 2.3-2.4 3.9-4.7 3.9-3.5 0-5.7-2.9-5.7-7.6 0-3.6 1.5-7.9 5.7-7.9 2.7 0 4.3 2 4.7 3.9.1.4.2 1.1.2 1.6zm-36.8-6.5c3.4 0 4.2 2.7 4.4 4.3h-9.3c.6-1.9 2-4.3 4.9-4.3z"/></svg>