<?xml version="1.0" encoding="UTF-8"?><svg id="Layer_1" xmlns="http://www.w3.org/2000/svg" viewBox="0 0 347.97 500"><polygon points="46.76 187.31 .02 187.31 .02 266.62 .02 338.45 46.76 338.45 46.76 187.31" fill="#009ca6" stroke-width="0"/><polygon points="100.42 187.31 100.42 266.62 100.42 338.45 147.18 338.45 147.18 187.31 100.42 187.31" fill="#009ca6" stroke-width="0"/><polygon points="200.84 187.31 200.84 266.62 200.84 338.45 247.58 338.45 247.58 187.31 200.84 187.31" fill="#009ca6" stroke-width="0"/><polygon points=".02 159.03 174.01 159.03 347.97 159.03 347.97 116.44 .02 116.44 .02 159.03" fill="#009ca6" stroke-width="0"/><polygon points="174.01 0 .02 57.99 .02 101.95 174.01 43.97 347.97 101.95 347.97 57.99 174.01 0" fill="#009ca6" stroke-width="0"/><path d="M347.97,335.09c-.91,2.55-17.78,31.65-128.88,31.65h-90.21c-113.95.87-126.71,15.7-128.88,17.28v43.5c2.18-1.58,14.94-16.42,128.88-17.28h90.21c111.08,0,127.94-29.1,128.88-31.65v-43.5Z" fill="#009ca6" stroke-width="0"/><path d="M347.97,407.57c-.91,2.55-17.78,31.65-128.88,31.65h-90.21c-113.95.87-126.71,15.7-128.88,17.28v43.5c2.18-1.58,14.94-16.42,128.88-17.28h90.21c111.08,0,127.94-29.1,128.88-31.65v-43.5Z" fill="#009ca6" stroke-width="0"/><path d="M301.24,187.31v143.35c38.33-8.8,46.12-22.4,46.74-24.11v-119.24s-46.74,0-46.74,0Z" fill="#009ca6" stroke-width="0"/></svg>