<svg enable-background="new 0 0 320 94" viewBox="0 0 320 94" xmlns="http://www.w3.org/2000/svg"><g fill="#fff"><path d="m129.55 25.36c-4.07 0-7.23 1.01-10.16 3.24-1.84 1.38-3.46 3.22-4.75 5.32-2.26-5.3-7.1-8.57-12.82-8.57-5.98 0-10.65 2.56-13.93 7.6l-.33-6.59h-8.06l.04.5c.26 3.44.37 7.05.37 12.09v33.12h8.87v-27.45c0-1.47.2-2.74.64-3.83 1.2-3.77 4.73-7.82 9.64-7.82 5.56 0 8.87 4.43 8.87 11.85v27.3h8.87v-28.14c0-1.31.22-2.74.61-3.92 1.23-3.53 4.56-7.1 9.18-7.1 7.65 0 9.24 7.25 9.24 13.32v25.81h8.87v-26.82c.04-18.97-12.6-19.91-15.15-19.91z"/><path d="m181.03 32.3c-1.73-2.69-5.74-6.97-13.76-6.97-5.41 0-10.47 2.26-14.26 6.35-4.16 4.47-6.35 10.67-6.35 17.9 0 6.13 1.95 11.79 5.48 15.86 3.57 4.14 8.57 6.42 14.04 6.42 5.91 0 10.93-2.43 13.98-6.7v3.72c0 12.53-7.6 15.18-13.98 15.18-6.66 0-11.24-2.41-12.88-3.44l-.5-.31-2.32 7.1.28.2c3.51 2.32 9.29 3.77 15.14 3.77 4.89 0 11.74-.94 16.58-5.48 4.51-4.03 6.53-10.45 6.53-20.79v-26c0-5.37.18-8.87.37-12.27l.02-.48h-8.04zm-12.46 32.45c-9.42 0-12.77-8.41-12.77-15.64 0-9.86 5.17-16.47 12.86-16.47 6.16 0 9.68 4.27 10.93 8.28.31.92.44 1.99.44 3.55v8.04c0 1.51-.22 3-.61 4.21-1.65 4.89-5.92 8.03-10.85 8.03z"/><path d="m224.61 29.26c-3.9-3.53-8.57-3.9-10.38-3.9-2.91 0-5.87.81-8.54 2.37-2.12 1.18-3.99 2.87-5.32 4.82v-27.08h-9.07v66.6h9.07v-27.48c0-1.51.09-2.67.53-3.75 1.29-3.9 5.04-7.82 10.47-7.82 8.61 0 9.9 8.06 9.9 12.86v26.18h9.07v-27.1c-.02-7-1.94-12.28-5.73-15.7z"/><path d="m233.87 5.6h11.48v66.6h-11.48z"/><path d="m284.8 69.9c-2.41 1.12-7.12 2.32-12.77 2.32-14.06 0-23.22-8.98-23.22-22.94 0-13.49 9.24-24.05 25.06-24.05 4.16 0 8.41.92 11 2.12l-2.04 8.5c-1.84-.83-4.53-1.75-8.61-1.75-8.7 0-13.87 6.37-13.78 14.61 0 9.24 6 14.52 13.78 14.52 3.99 0 6.75-.83 8.98-1.75z"/><path d="m289.21 60.83c2.58 1.58 7.49 3.24 11.57 3.24 4.99 0 7.21-2.04 7.21-4.99 0-3.04-1.84-4.62-7.4-6.57-8.78-3.04-12.49-7.86-12.4-13.14 0-7.95 6.57-14.15 17.02-14.15 4.99 0 9.33 1.29 11.94 2.67l-2.21 8.06c-1.95-1.12-5.54-2.58-9.53-2.58-4.07 0-6.29 1.95-6.29 4.71 0 2.87 2.12 4.25 7.86 6.29 8.15 2.96 11.94 7.12 12.03 13.78 0 8.15-6.37 14.06-18.31 14.06-5.45 0-10.36-1.29-13.69-3.15z"/><path d="m54.54 74.39s-.57-1.05-1.49-2.78c-3.35-6.29-11.54-21.62-15.42-28.89-1.27-2.39-2.08-3.9-2.1-3.97v-17.73-3.09-1.29h.31c.88 0 1.58-.7 1.58-1.58 0-.88-.7-1.58-1.58-1.58h-.31-6-2.85-6-.31c-.88 0-1.58.7-1.58 1.58 0 .88.7 1.58 1.58 1.58h.31v1.29 1.4 19.41l-6.55 12.29-11.13 20.84-1.34 2.52c-.46.85-.7 1.82-.66 2.87.11 3.02 2.72 5.35 5.74 5.35h21.38 21.38c3.02 0 5.61-2.32 5.74-5.35.01-1.06-.24-2.02-.7-2.87zm-4.99 5.03h-21.47-21.47c-1.29 0-2.43-.99-2.5-2.3-.02-.42.07-.81.22-1.16.02-.04.04-.07.07-.11l13.41-25.1 5.63-10.54c.24-.46.37-.96.37-1.49v-20.81-.02-1.27h2.85 2.85 2.85v1.25.04 20.81c0 .79 0 .79 1.18 3.02l1.2 2.23.96 1.8 6.55 12.25 9.51 17.83c.02.04.04.07.07.11.18.35.24.74.22 1.16-.07 1.32-1.19 2.3-2.5 2.3z"/><path d="m32.88 4.81c0-.2-.15-.35-.35-.35h-1.97c-.2 0-.35.15-.35.35 0 .18.15.33.35.33h1.97c.2 0 .35-.15.35-.33z"/><path d="m37.5 4.46h-1.97c-.2 0-.35.15-.35.35 0 .18.15.33.35.33h1.97c.2 0 .35-.15.35-.33-.02-.2-.17-.35-.35-.35z"/><path d="m34.02 1c-.2 0-.35.15-.35.33v1.99c0 .2.15.35.35.35s.35-.15.35-.35v-1.99c0-.18-.15-.33-.35-.33z"/><path d="m34.02 5.95c-.2 0-.35.15-.35.35v1.97c0 .2.15.35.35.35s.35-.15.35-.35v-1.97c0-.2-.15-.35-.35-.35z"/><path d="m32.73 5.6-1.41 1.4c-.07.07-.11.15-.11.24s.04.18.11.24c.07.07.15.09.24.09s.18-.04.24-.09l1.4-1.4c.07-.07.11-.15.11-.24s-.04-.18-.11-.24c-.12-.11-.34-.13-.47 0z"/><path d="m35.07 4.09c.09 0 .18-.04.24-.09l1.4-1.4c.13-.13.13-.35 0-.48-.13-.13-.35-.13-.48 0l-1.4 1.4c-.13.13-.13.35 0 .48.06.07.15.09.24.09z"/><path d="m31.81 2.1c-.13-.13-.35-.13-.48 0-.07.07-.11.15-.11.24s.04.18.11.24l1.4 1.4c.07.07.15.09.24.09s.18-.04.24-.09c.07-.07.11-.15.11-.24s-.04-.18-.11-.24z"/><path d="m35.31 5.6c-.13-.13-.35-.13-.48 0-.07.07-.09.15-.09.24s.04.18.09.24l1.4 1.4c.07.07.15.09.24.09s.18-.04.24-.09c.13-.13.13-.35 0-.48z"/><path d="m6.53 78.33c-.72 0-1.31-.59-1.31-1.31 0-.2.04-.39.13-.57l13.19-24.69c5.13-.83 9.35-3.02 13.45-5.13.77-.39 1.53-.79 2.3-1.18l16.51 30.93c.13.24.18.42.18.64 0 .72-.59 1.31-1.31 1.31zm28.3-7.05c-1.03 0-1.86.83-1.86 1.86s.83 1.86 1.86 1.86 1.86-.83 1.86-1.86-.83-1.86-1.86-1.86zm1.05 1.86c0 .59-.48 1.05-1.05 1.05s-1.05-.48-1.05-1.05.48-1.05 1.05-1.05 1.05.46 1.05 1.05zm-14.63-14.85c-1.03 0-1.86.83-1.86 1.86s.83 1.86 1.86 1.86 1.86-.83 1.86-1.86-.83-1.86-1.86-1.86zm1.07 1.86c0 .59-.48 1.05-1.05 1.05-.59 0-1.05-.48-1.05-1.05 0-.59.48-1.05 1.05-1.05.57-.03 1.05.46 1.05 1.05zm1.51 9.26c-1.03 0-1.86.83-1.86 1.86s.83 1.86 1.86 1.86 1.86-.83 1.86-1.86c0-1.02-.83-1.86-1.86-1.86zm1.05 1.87c0 .59-.48 1.05-1.05 1.05-.59 0-1.05-.48-1.05-1.05 0-.59.48-1.05 1.05-1.05.59-.01 1.05.45 1.05 1.05zm9.95-10.87c-1.03 0-1.86.83-1.86 1.86s.83 1.86 1.86 1.86 1.86-.83 1.86-1.86-.83-1.86-1.86-1.86zm1.05 1.86c0 .59-.48 1.05-1.05 1.05s-1.05-.48-1.05-1.05c0-.59.48-1.05 1.05-1.05s1.05.46 1.05 1.05zm-20.66 11v-3.35c0-.31-.24-.55-.55-.55-.31 0-.55.24-.55.55v3.35c0 .31.24.55.55.55.31 0 .55-.24.55-.55zm26.14-4.4v-3.35c0-.31-.24-.55-.55-.55-.31 0-.55.24-.55.55v3.35c0 .31.24.55.55.55.31-.01.55-.25.55-.55zm-9.75-13.39v-3.35c0-.31-.24-.55-.55-.55-.31 0-.55.24-.55.55v3.35c0 .31.24.55.55.55.31.02.55-.24.55-.55zm-2.96 9.44v-3.35c0-.31-.24-.55-.55-.55-.31 0-.55.24-.55.55v3.35c0 .31.24.55.55.55.29 0 .55-.24.55-.55z"/></g></svg>