<?xml version="1.0" encoding="UTF-8"?><svg id="Artboard_1" xmlns="http://www.w3.org/2000/svg" viewBox="0 0 2010.91 209.89"><path d="M226.06,141.13v7.48h-22.03v17.69h19.58v7.48h-19.58v21.44h-9.65v-54.09h31.68Z" fill="#003a96" stroke-width="0"/><path d="M249.17,196.22c-12.17,0-19.29-7.05-19.29-20.72s6.98-20.86,19.44-20.86,19.29,7.05,19.29,20.72-6.98,20.86-19.44,20.86ZM258.53,175.44c0-8.92-2.95-14.03-9.29-14.03s-9.29,5.54-9.29,14.03c0,8.92,2.95,14.03,9.29,14.03s9.29-5.54,9.29-14.03Z" fill="#003a96" stroke-width="0"/><path d="M304.39,195.22l-1.73-6.76c-1.15,4.46-4.9,7.62-11.66,7.62-5.62,0-9.07-2.16-10.94-4.89-2.3-3.31-2.3-7.48-2.3-12.23v-23.31h9.5v23.45c0,2.3,0,4.6,1.3,6.47s3.6,2.88,6.48,2.88c6.62,0,7.2-5.61,7.2-8.63v-24.17h9.5v39.56h-7.34Z" fill="#003a96" stroke-width="0"/><path d="M330.53,155.66l1.73,6.76c1.29-4.6,4.89-7.62,11.73-7.62,6.12,0,9.57,2.45,11.45,5.18,2.3,3.31,2.3,7.19,2.3,11.94v23.31h-9.5v-23.45c0-2.3,0-4.6-1.3-6.47s-3.17-2.88-6.26-2.88c-7.13,0-7.99,5.47-7.99,8.63v24.17h-9.5v-39.56h7.34Z" fill="#003a96" stroke-width="0"/><path d="M404.33,139.11v56.11h-7.34l-1.87-6.62c-1.22,4.53-5.33,7.48-11.88,7.48-11.01,0-16.77-8.34-16.77-20.43s5.9-20.86,17.42-20.86c5.76,0,9.5,2.16,11.09,6.76v-22.44h9.36ZM376.54,175.44c0,7.84,2.59,13.45,9.29,13.45s9.29-5.68,9.29-13.52-2.59-13.38-9.29-13.38-9.29,5.61-9.29,13.45Z" fill="#003a96" stroke-width="0"/><path d="M426.22,144.44c0,3.17-2.3,5.61-5.69,5.61s-5.69-2.45-5.69-5.61,2.3-5.61,5.69-5.61,5.69,2.45,5.69,5.61ZM425.21,155.66v39.56h-9.36v-39.56h9.36Z" fill="#003a96" stroke-width="0"/><path d="M444.07,155.66l1.73,6.76c1.29-4.6,4.89-7.62,11.73-7.62,6.12,0,9.57,2.45,11.45,5.18,2.3,3.31,2.3,7.19,2.3,11.94v23.31h-9.5v-23.45c0-2.3,0-4.6-1.3-6.47s-3.17-2.88-6.26-2.88c-7.13,0-7.99,5.47-7.99,8.63v24.17h-9.5v-39.56h7.34Z" fill="#003a96" stroke-width="0"/><path d="M497.78,180.26c-1.94,0-3.74-.14-5.4-.5-.94.5-2.09,1.44-2.09,3.24,0,3.02,3.17,3.02,5.33,3.02h6.77c4.9,0,15.55,0,15.55,10.65,0,8.63-6.91,13.24-21.38,13.24-12.67,0-18.21-3.52-18.21-9.57,0-6.98,7.34-7.91,7.7-7.98-.22-.07-5.11-1.73-5.11-6.76s4.9-6.76,7.42-7.26c-4.32-2.16-6.84-5.97-6.84-10.86,0-7.77,6.33-12.8,16.27-12.8,4.9,0,8.93,1.22,11.74,3.45,1.8-5.04,5.97-5.04,8.42-5.04h.86v7.77s-1.44-.29-3.17-.29c-1.87,0-2.81.36-3.31.58,1.08,1.8,1.73,3.96,1.73,6.33,0,7.77-6.33,12.8-16.27,12.8ZM489.72,193.78s-2.74,1.44-2.74,4.75,3.02,5.04,9.93,5.04c7.63,0,11.66-1.87,11.66-5.61,0-4.03-4.9-4.17-7.2-4.17h-11.66ZM504.41,167.45c0-4.03-2.45-6.19-6.62-6.19s-6.62,2.16-6.62,6.19,2.45,6.19,6.62,6.19,6.62-2.16,6.62-6.19Z" fill="#003a96" stroke-width="0"/><path d="M558.84,141.13l17.28,41.29,16.85-41.29h12.09v54.09h-9.5v-42.29l-15.98,39.56h-8.5l-15.98-39.56v42.29h-8.5v-54.09h12.24Z" fill="#003a96" stroke-width="0"/><path d="M647.9,194.07s-5.4,1.73-12.53,1.73c-7.63,0-12.09-2.01-15.12-4.89-3.6-3.45-5.33-8.63-5.33-15.18,0-12.88,6.62-21.08,18.43-21.08,6.48,0,11.38,2.45,14.11,6.91s2.74,10.36,2.74,16.54h-25.48c0,6.76,3.89,10.79,11.37,10.79,5.47,0,11.23-2.16,11.23-2.16h.58v7.34ZM640.55,171.62c0-6.62-2.02-10.36-7.49-10.36s-7.78,3.96-8.35,10.36h15.84Z" fill="#003a96" stroke-width="0"/><path d="M666.98,155.66l1.73,6.76c1.15-4.46,4.46-7.62,11.45-7.62s10.29,3.02,12.02,7.91c1.87-5.32,5.47-7.91,11.52-7.91s9.5,2.73,11.09,5.18c2.16,3.31,2.16,7.19,2.16,11.94v23.31h-9.5v-23.45c0-2.3,0-4.6-1.15-6.47-1.01-1.58-2.74-2.88-5.9-2.88-6.48,0-7.34,5.47-7.34,8.63v24.17h-9.5v-23.45c0-2.3,0-4.6-1.15-6.47-1.01-1.58-2.74-2.88-5.9-2.88-6.48,0-7.34,5.47-7.34,8.63v24.17h-9.5v-39.56h7.34Z" fill="#003a96" stroke-width="0"/><path d="M737.32,139.11v23.16c1.3-4.46,5.04-7.48,11.66-7.48,10.37,0,16.85,7.48,16.85,20.43s-6.62,20.86-17.93,20.86c-5.98,0-9.86-2.16-11.59-6.76l-2.45,5.9h-5.9v-56.11h9.36ZM737.18,175.58c0,7.98,2.59,13.59,9.29,13.59s9.29-5.68,9.29-13.67-2.59-13.52-9.29-13.52-9.29,5.61-9.29,13.59Z" fill="#003a96" stroke-width="0"/><path d="M805.65,194.07s-5.4,1.73-12.53,1.73c-7.63,0-12.09-2.01-15.12-4.89-3.6-3.45-5.33-8.63-5.33-15.18,0-12.88,6.62-21.08,18.43-21.08,6.48,0,11.38,2.45,14.11,6.91s2.74,10.36,2.74,16.54h-25.48c0,6.76,3.89,10.79,11.37,10.79,5.47,0,11.23-2.16,11.23-2.16h.58v7.34ZM798.3,171.62c0-6.62-2.02-10.36-7.49-10.36s-7.78,3.96-8.35,10.36h15.84Z" fill="#003a96" stroke-width="0"/><path d="M839.56,164.14s-1.94-.43-4.17-.43c-8.5,0-8.5,6.26-8.5,9.35v22.15h-9.5v-39.56h7.2l1.87,7.77c1.44-6.62,6.34-8.2,12.09-8.2h1.01v8.92Z" fill="#003a96" stroke-width="0"/><path d="M849.78,185.72l-5.62,20.14h-7.05l3.17-20.14h9.5Z" fill="#003a96" stroke-width="0"/><path d="M892.26,141.13l17.28,41.29,16.85-41.29h12.09v54.09h-9.5v-42.29l-15.98,39.56h-8.49l-15.98-39.56v42.29h-8.5v-54.09h12.24Z" fill="#003a96" stroke-width="0"/><path d="M951.52,156.81s4.89-1.73,12.67-1.73c5.9,0,11.23,1.01,13.97,4.89,2.16,3.02,2.16,7.05,2.16,10.65v13.52c0,1.65,0,4.6,3.38,4.6,1.08,0,2.09-.29,2.09-.29v6.62s-2.16.58-5.04.58c-5.04,0-8.21-1.73-8.78-7.05-1.44,4.6-5.9,7.19-11.66,7.19-7.77,0-12.67-4.75-12.67-11.87,0-8.56,7.05-12.73,19.58-12.73,2.3,0,3.74.14,3.74.14,0-3.31,0-4.89-1.15-6.62-1.15-1.65-3.1-2.59-6.98-2.59-5.69,0-10.73,2.01-10.73,2.01h-.58v-7.34ZM962.97,188.74c2.81,0,5.4-1.29,6.7-3.74,1.3-2.45,1.3-5.32,1.3-6.91v-.86h-2.16c-4.18,0-11.38,0-11.38,6.19,0,3.17,1.87,5.32,5.54,5.32Z" fill="#003a96" stroke-width="0"/><path d="M1017.04,164.14h-.58s-5.04-2.01-9.5-2.01c-4.03,0-5.9,1.58-5.9,3.6,0,6.11,17.85,4.32,17.85,17.98,0,8.42-6.7,12.08-16.2,12.08-6.84,0-11.16-1.87-11.16-1.87v-7.62h.58s6.05,2.45,11.09,2.45c4.32,0,6.19-1.73,6.19-4.03,0-7.12-17.85-5.04-17.85-17.91,0-7.19,5.62-11.72,15.62-11.72,5.62,0,9.86,1.44,9.86,1.44v7.62Z" fill="#003a96" stroke-width="0"/><path d="M1050.52,164.14h-.58s-5.04-2.01-9.5-2.01c-4.03,0-5.9,1.58-5.9,3.6,0,6.11,17.85,4.32,17.85,17.98,0,8.42-6.7,12.08-16.2,12.08-6.84,0-11.16-1.87-11.16-1.87v-7.62h.58s6.05,2.45,11.09,2.45c4.32,0,6.19-1.73,6.19-4.03,0-7.12-17.85-5.04-17.85-17.91,0-7.19,5.62-11.72,15.62-11.72,5.62,0,9.86,1.44,9.86,1.44v7.62Z" fill="#003a96" stroke-width="0"/><path d="M1123.74,166.59v26.47s-7.05,2.88-16.63,2.88c-16.63,0-28-8.63-28-27.33s11.95-28.05,29.23-28.05c7.92,0,13.68,1.87,13.68,1.87v7.62h-.58s-5.62-2.3-12.81-2.3c-11.95,0-19.29,6.33-19.29,20.28s7.34,20.72,17.85,20.72c4.03,0,7.06-1.01,7.06-1.01v-13.96h-9.65v-7.19h19.15Z" fill="#003a96" stroke-width="0"/><path d="M1165.14,194.07s-5.4,1.73-12.53,1.73c-7.63,0-12.09-2.01-15.12-4.89-3.6-3.45-5.33-8.63-5.33-15.18,0-12.88,6.62-21.08,18.43-21.08,6.48,0,11.37,2.45,14.11,6.91,2.74,4.46,2.74,10.36,2.74,16.54h-25.48c0,6.76,3.89,10.79,11.37,10.79,5.47,0,11.23-2.16,11.23-2.16h.58v7.34ZM1157.79,171.62c0-6.62-2.02-10.36-7.49-10.36s-7.78,3.96-8.35,10.36h15.84Z" fill="#003a96" stroke-width="0"/><path d="M1184.22,155.66l1.73,6.76c1.3-4.6,4.9-7.62,11.74-7.62,6.12,0,9.57,2.45,11.45,5.18,2.3,3.31,2.3,7.19,2.3,11.94v23.31h-9.5v-23.45c0-2.3,0-4.6-1.3-6.47s-3.17-2.88-6.26-2.88c-7.13,0-7.99,5.47-7.99,8.63v24.17h-9.5v-39.56h7.34Z" fill="#003a96" stroke-width="0"/><path d="M1253.12,194.07s-5.4,1.73-12.53,1.73c-7.63,0-12.09-2.01-15.12-4.89-3.6-3.45-5.33-8.63-5.33-15.18,0-12.88,6.62-21.08,18.43-21.08,6.48,0,11.37,2.45,14.11,6.91,2.74,4.46,2.74,10.36,2.74,16.54h-25.48c0,6.76,3.89,10.79,11.37,10.79,5.47,0,11.23-2.16,11.23-2.16h.58v7.34ZM1245.78,171.62c0-6.62-2.02-10.36-7.49-10.36s-7.78,3.96-8.35,10.36h15.84Z" fill="#003a96" stroke-width="0"/><path d="M1287.03,164.14s-1.94-.43-4.17-.43c-8.5,0-8.5,6.26-8.5,9.35v22.15h-9.5v-39.56h7.2l1.87,7.77c1.44-6.62,6.33-8.2,12.09-8.2h1.01v8.92Z" fill="#003a96" stroke-width="0"/><path d="M1294.31,156.81s4.89-1.73,12.67-1.73c5.9,0,11.23,1.01,13.97,4.89,2.16,3.02,2.16,7.05,2.16,10.65v13.52c0,1.65,0,4.6,3.38,4.6,1.08,0,2.09-.29,2.09-.29v6.62s-2.16.58-5.04.58c-5.04,0-8.21-1.73-8.78-7.05-1.44,4.6-5.9,7.19-11.66,7.19-7.77,0-12.67-4.75-12.67-11.87,0-8.56,7.05-12.73,19.58-12.73,2.3,0,3.74.14,3.74.14,0-3.31,0-4.89-1.15-6.62-1.15-1.65-3.1-2.59-6.98-2.59-5.69,0-10.73,2.01-10.73,2.01h-.58v-7.34ZM1305.75,188.74c2.81,0,5.4-1.29,6.7-3.74,1.3-2.45,1.3-5.32,1.3-6.91v-.86h-2.16c-4.18,0-11.37,0-11.37,6.19,0,3.17,1.87,5.32,5.54,5.32Z" fill="#003a96" stroke-width="0"/><path d="M1345.35,139.11v56.11h-9.36v-56.11h9.36Z" fill="#003a96" stroke-width="0"/><path d="M1394.45,141.13c4.18,0,8.78,0,12.67,2.3,3.31,1.94,5.9,5.32,5.9,11,0,10.79-9.5,11.87-9.5,11.87,0,0,12.67.58,12.67,13.38,0,6.19-2.88,10.07-6.77,12.52-4.75,3.02-10.22,3.02-14.69,3.02h-17.71v-54.09h17.42ZM1386.53,163.42h6.62c2.16,0,4.39,0,6.48-1.15,2.02-1.15,3.46-3.16,3.46-6.47s-1.44-5.47-3.46-6.62c-2.09-1.15-4.32-1.15-6.48-1.15h-6.62v15.39ZM1386.53,188.31h7.78c2.45,0,5.25,0,8.06-1.58,2.52-1.44,3.89-3.74,3.89-7.19s-1.37-5.75-3.89-7.19c-2.81-1.58-5.62-1.58-8.06-1.58h-7.78v17.55Z" fill="#003a96" stroke-width="0"/><path d="M1447.08,164.14s-1.94-.43-4.17-.43c-8.5,0-8.5,6.26-8.5,9.35v22.15h-9.5v-39.56h7.2l1.87,7.77c1.44-6.62,6.33-8.2,12.09-8.2h1.01v8.92Z" fill="#003a96" stroke-width="0"/><path d="M1464.58,144.44c0,3.17-2.3,5.61-5.69,5.61s-5.69-2.45-5.69-5.61,2.3-5.61,5.69-5.61,5.69,2.45,5.69,5.61ZM1463.57,155.66v39.56h-9.36v-39.56h9.36Z" fill="#003a96" stroke-width="0"/><path d="M1490.57,180.26c-1.94,0-3.74-.14-5.4-.5-.94.5-2.09,1.44-2.09,3.24,0,3.02,3.17,3.02,5.33,3.02h6.77c4.9,0,15.55,0,15.55,10.65,0,8.63-6.91,13.24-21.38,13.24-12.67,0-18.21-3.52-18.21-9.57,0-6.98,7.34-7.91,7.7-7.98-.22-.07-5.11-1.73-5.11-6.76s4.9-6.76,7.42-7.26c-4.32-2.16-6.84-5.97-6.84-10.86,0-7.77,6.33-12.8,16.27-12.8,4.9,0,8.93,1.22,11.74,3.45,1.8-5.04,5.97-5.04,8.42-5.04h.86v7.77s-1.44-.29-3.17-.29c-1.87,0-2.81.36-3.31.58,1.08,1.8,1.73,3.96,1.73,6.33,0,7.77-6.33,12.8-16.27,12.8ZM1482.51,193.78s-2.74,1.44-2.74,4.75,3.02,5.04,9.93,5.04c7.63,0,11.66-1.87,11.66-5.61,0-4.03-4.9-4.17-7.2-4.17h-11.66ZM1497.2,167.45c0-4.03-2.45-6.19-6.62-6.19s-6.62,2.16-6.62,6.19,2.45,6.19,6.62,6.19,6.62-2.16,6.62-6.19Z" fill="#003a96" stroke-width="0"/><path d="M1528.51,139.11v22.73c1.3-4.17,4.46-7.05,11.23-7.05,6.19,0,9.65,2.45,11.52,5.18,2.3,3.31,2.3,7.19,2.3,11.94v23.31h-9.5v-23.45c0-2.3,0-4.6-1.3-6.47s-3.17-2.88-6.26-2.88c-7.13,0-7.99,5.47-7.99,8.63v24.17h-9.36v-56.11h9.36Z" fill="#003a96" stroke-width="0"/><path d="M1565.45,156.81s4.89-1.73,12.67-1.73c5.9,0,11.23,1.01,13.97,4.89,2.16,3.02,2.16,7.05,2.16,10.65v13.52c0,1.65,0,4.6,3.38,4.6,1.08,0,2.09-.29,2.09-.29v6.62s-2.16.58-5.04.58c-5.04,0-8.21-1.73-8.78-7.05-1.44,4.6-5.9,7.19-11.66,7.19-7.77,0-12.67-4.75-12.67-11.87,0-8.56,7.05-12.73,19.58-12.73,2.3,0,3.74.14,3.74.14,0-3.31,0-4.89-1.15-6.62-1.15-1.65-3.1-2.59-6.98-2.59-5.69,0-10.73,2.01-10.73,2.01h-.58v-7.34ZM1576.9,188.74c2.81,0,5.4-1.29,6.7-3.74,1.3-2.45,1.3-5.32,1.3-6.91v-.86h-2.16c-4.18,0-11.38,0-11.38,6.19,0,3.17,1.87,5.32,5.54,5.32Z" fill="#003a96" stroke-width="0"/><path d="M1614.48,155.66l1.73,6.76c1.15-4.46,4.46-7.62,11.45-7.62s10.29,3.02,12.02,7.91c1.87-5.32,5.47-7.91,11.52-7.91s9.5,2.73,11.09,5.18c2.16,3.31,2.16,7.19,2.16,11.94v23.31h-9.5v-23.45c0-2.3,0-4.6-1.15-6.47-1.01-1.58-2.74-2.88-5.9-2.88-6.48,0-7.34,5.47-7.34,8.63v24.17h-9.5v-23.45c0-2.3,0-4.6-1.15-6.47-1.01-1.58-2.74-2.88-5.9-2.88-6.48,0-7.34,5.47-7.34,8.63v24.17h-9.5v-39.56h7.34Z" fill="#003a96" stroke-width="0"/><path d="M214.78,5.91l28.8,68.81,28.08-68.81h20.16v90.14h-15.84V25.57l-26.64,65.93h-14.16l-26.64-65.93v70.49h-14.16V5.91h20.4Z" fill="#003a96" stroke-width="0"/><path d="M309.94,32.05s8.16-2.88,21.12-2.88c9.84,0,18.72,1.68,23.28,8.15,3.6,5.04,3.6,11.75,3.6,17.74v22.54c0,2.76,0,7.67,5.64,7.67,1.8,0,3.48-.48,3.48-.48v11.03s-3.6.96-8.4.96c-8.4,0-13.68-2.88-14.64-11.75-2.4,7.67-9.84,11.99-19.44,11.99-12.96,0-21.12-7.91-21.12-19.78,0-14.26,11.76-21.22,32.64-21.22,3.84,0,6.24.24,6.24.24,0-5.51,0-8.15-1.92-11.03-1.92-2.76-5.16-4.32-11.64-4.32-9.48,0-17.88,3.36-17.88,3.36h-.96v-12.23ZM329.02,85.27c4.68,0,9-2.16,11.16-6.23,2.16-4.08,2.16-8.87,2.16-11.51v-1.44h-3.6c-6.96,0-18.96,0-18.96,10.31,0,5.27,3.12,8.87,9.24,8.87Z" fill="#003a96" stroke-width="0"/><path d="M417.94,44.27h-.96s-8.4-3.36-15.84-3.36c-6.72,0-9.84,2.64-9.84,5.99,0,10.19,29.76,7.19,29.76,29.97,0,14.03-11.16,20.14-27,20.14-11.4,0-18.6-3.12-18.6-3.12v-12.71h.96s10.08,4.08,18.48,4.08c7.2,0,10.32-2.88,10.32-6.71,0-11.87-29.76-8.39-29.76-29.85,0-11.99,9.36-19.54,26.04-19.54,9.36,0,16.44,2.4,16.44,2.4v12.71Z" fill="#003a96" stroke-width="0"/><path d="M473.14,44.27h-.96s-8.4-3.36-15.84-3.36c-6.72,0-9.84,2.64-9.84,5.99,0,10.19,29.76,7.19,29.76,29.97,0,14.03-11.16,20.14-27,20.14-11.4,0-18.6-3.12-18.6-3.12v-12.71h.96s10.08,4.08,18.48,4.08c7.2,0,10.32-2.88,10.32-6.71,0-11.87-29.76-8.39-29.76-29.85,0-11.99,9.36-19.54,26.04-19.54,9.36,0,16.44,2.4,16.44,2.4v12.71Z" fill="#003a96" stroke-width="0"/><path d="M490.66,32.05s8.16-2.88,21.12-2.88c9.84,0,18.72,1.68,23.28,8.15,3.6,5.04,3.6,11.75,3.6,17.74v22.54c0,2.76,0,7.67,5.64,7.67,1.8,0,3.48-.48,3.48-.48v11.03s-3.6.96-8.4.96c-8.4,0-13.68-2.88-14.64-11.75-2.4,7.67-9.84,11.99-19.44,11.99-12.96,0-21.12-7.91-21.12-19.78,0-14.26,11.76-21.22,32.64-21.22,3.84,0,6.24.24,6.24.24,0-5.51,0-8.15-1.92-11.03-1.92-2.76-5.16-4.32-11.64-4.32-9.48,0-17.88,3.36-17.88,3.36h-.96v-12.23ZM509.74,85.27c4.68,0,9-2.16,11.16-6.23,2.16-4.08,2.16-8.87,2.16-11.51v-1.44h-3.6c-6.96,0-18.96,0-18.96,10.31,0,5.27,3.12,8.87,9.24,8.87Z" fill="#003a96" stroke-width="0"/><path d="M600.93,95.1s-5.76,1.92-14.28,1.92c-21.96,0-33.24-12.71-33.24-33.8s11.28-34.04,33.12-34.04c8.4,0,14.4,1.92,14.4,1.92v12.71h-.96s-5.76-2.64-12.36-2.64c-11.64,0-17.4,8.15-17.4,21.82s5.76,22.06,17.28,22.06c6.48,0,12.48-2.64,12.48-2.64h.96v12.71Z" fill="#003a96" stroke-width="0"/><path d="M629.26,2.56v37.88c2.16-6.95,7.44-11.75,18.72-11.75,10.32,0,16.08,4.08,19.2,8.63,3.84,5.51,3.84,11.99,3.84,19.9v38.84h-15.84v-39.08c0-3.84,0-7.67-2.16-10.79s-5.28-4.79-10.44-4.79c-11.88,0-13.32,9.11-13.32,14.38v40.28h-15.6V2.56h15.6Z" fill="#003a96" stroke-width="0"/><path d="M731.37,96.06l-2.88-11.27c-1.92,7.43-8.16,12.71-19.44,12.71-9.36,0-15.12-3.6-18.24-8.15-3.84-5.51-3.84-12.47-3.84-20.38V30.13h15.84v39.08c0,3.84,0,7.67,2.16,10.79,2.16,3.12,6,4.79,10.8,4.79,11.04,0,12-9.35,12-14.38V30.13h15.84v65.93h-12.24Z" fill="#003a96" stroke-width="0"/><path d="M800.01,44.27h-.96s-8.4-3.36-15.84-3.36c-6.72,0-9.84,2.64-9.84,5.99,0,10.19,29.76,7.19,29.76,29.97,0,14.03-11.16,20.14-27,20.14-11.4,0-18.6-3.12-18.6-3.12v-12.71h.96s10.08,4.08,18.48,4.08c7.2,0,10.32-2.88,10.32-6.71,0-11.87-29.76-8.39-29.76-29.85,0-11.99,9.36-19.54,26.04-19.54,9.36,0,16.44,2.4,16.44,2.4v12.71Z" fill="#003a96" stroke-width="0"/><path d="M866.73,94.14s-9,2.88-20.88,2.88c-12.72,0-20.16-3.36-25.2-8.15-6-5.75-8.88-14.38-8.88-25.29,0-21.46,11.04-35.12,30.72-35.12,10.8,0,18.96,4.08,23.52,11.51s4.56,17.26,4.56,27.57h-42.48c0,11.27,6.48,17.98,18.96,17.98,9.12,0,18.72-3.6,18.72-3.6h.96v12.23ZM854.49,56.74c0-11.03-3.36-17.26-12.48-17.26s-12.96,6.59-13.92,17.26h26.4Z" fill="#003a96" stroke-width="0"/><path d="M921.81,95.58s-5.04,1.44-12,1.44c-9.12,0-15.6-2.4-18.96-7.43-2.88-4.44-2.88-10.07-2.88-17.02v-29.97h-12v-11.51h12V14.06l15.6-4.56v21.58h18.24v11.51h-18.24v29.73c0,4.31,0,7.43,1.44,9.83,1.44,2.4,4.08,3.12,7.08,3.12,4.68,0,8.76-1.68,8.76-1.68h.96v11.99Z" fill="#003a96" stroke-width="0"/><path d="M973.65,95.58s-5.04,1.44-12,1.44c-9.12,0-15.6-2.4-18.96-7.43-2.88-4.44-2.88-10.07-2.88-17.02v-29.97h-12v-11.51h12V14.06l15.6-4.56v21.58h18.24v11.51h-18.24v29.73c0,4.31,0,7.43,1.44,9.83,1.44,2.4,4.08,3.12,7.08,3.12,4.68,0,8.76-1.68,8.76-1.68h.96v11.99Z" fill="#003a96" stroke-width="0"/><path d="M1026.33,44.27h-.96s-8.4-3.36-15.84-3.36c-6.72,0-9.84,2.64-9.84,5.99,0,10.19,29.76,7.19,29.76,29.97,0,14.03-11.16,20.14-27,20.14-11.4,0-18.6-3.12-18.6-3.12v-12.71h.96s10.08,4.08,18.48,4.08c7.2,0,10.32-2.88,10.32-6.71,0-11.87-29.76-8.39-29.76-29.85,0-11.99,9.36-19.54,26.04-19.54,9.36,0,16.44,2.4,16.44,2.4v12.71Z" fill="#003a96" stroke-width="0"/><path d="M1143.56,48.35v44.11s-11.76,4.79-27.72,4.79c-27.72,0-46.68-14.38-46.68-45.55s19.92-46.75,48.72-46.75c13.2,0,22.8,3.12,22.8,3.12v12.71h-.96s-9.36-3.84-21.36-3.84c-19.92,0-32.16,10.55-32.16,33.8s12.24,34.52,29.76,34.52c6.72,0,11.76-1.68,11.76-1.68v-23.26h-16.08v-11.99h31.92Z" fill="#003a96" stroke-width="0"/><path d="M1210.76,94.14s-9,2.88-20.88,2.88c-12.72,0-20.16-3.36-25.2-8.15-6-5.75-8.88-14.38-8.88-25.29,0-21.46,11.04-35.12,30.72-35.12,10.8,0,18.96,4.08,23.52,11.51,4.56,7.43,4.56,17.26,4.56,27.57h-42.48c0,11.27,6.48,17.98,18.96,17.98,9.12,0,18.72-3.6,18.72-3.6h.96v12.23ZM1198.52,56.74c0-11.03-3.36-17.26-12.48-17.26s-12.96,6.59-13.92,17.26h26.4Z" fill="#003a96" stroke-width="0"/><path d="M1240.16,30.13l2.88,11.27c2.16-7.67,8.16-12.71,19.56-12.71,10.2,0,15.96,4.08,19.08,8.63,3.84,5.51,3.84,11.99,3.84,19.9v38.84h-15.84v-39.08c0-3.84,0-7.67-2.16-10.79-2.16-3.12-5.28-4.79-10.44-4.79-11.88,0-13.32,9.11-13.32,14.38v40.28h-15.84V30.13h12.24Z" fill="#003a96" stroke-width="0"/><path d="M1352.6,94.14s-9,2.88-20.88,2.88c-12.72,0-20.16-3.36-25.2-8.15-6-5.75-8.88-14.38-8.88-25.29,0-21.46,11.04-35.12,30.72-35.12,10.8,0,18.96,4.08,23.52,11.51s4.56,17.26,4.56,27.57h-42.48c0,11.27,6.48,17.98,18.96,17.98,9.12,0,18.72-3.6,18.72-3.6h.96v12.23ZM1340.36,56.74c0-11.03-3.36-17.26-12.48-17.26s-12.96,6.59-13.92,17.26h26.4Z" fill="#003a96" stroke-width="0"/><path d="M1406.72,44.27s-3.24-.72-6.96-.72c-14.16,0-14.16,10.43-14.16,15.58v36.92h-15.84V30.13h12l3.12,12.95c2.4-11.03,10.56-13.67,20.16-13.67h1.68v14.86Z" fill="#003a96" stroke-width="0"/><path d="M1417.04,32.05s8.16-2.88,21.12-2.88c9.84,0,18.72,1.68,23.28,8.15,3.6,5.04,3.6,11.75,3.6,17.74v22.54c0,2.76,0,7.67,5.64,7.67,1.8,0,3.48-.48,3.48-.48v11.03s-3.6.96-8.4.96c-8.4,0-13.68-2.88-14.64-11.75-2.4,7.67-9.84,11.99-19.44,11.99-12.96,0-21.12-7.91-21.12-19.78,0-14.26,11.76-21.22,32.64-21.22,3.84,0,6.24.24,6.24.24,0-5.51,0-8.15-1.92-11.03-1.92-2.76-5.16-4.32-11.64-4.32-9.48,0-17.88,3.36-17.88,3.36h-.96v-12.23ZM1436.12,85.27c4.68,0,9-2.16,11.16-6.23,2.16-4.08,2.16-8.87,2.16-11.51v-1.44h-3.6c-6.96,0-18.96,0-18.96,10.31,0,5.27,3.12,8.87,9.24,8.87Z" fill="#003a96" stroke-width="0"/><path d="M1499.72,2.56v93.5h-15.6V2.56h15.6Z" fill="#003a96" stroke-width="0"/><path d="M1563.8,5.91v37.16h39.84V5.91h16.08v90.14h-16.08v-40.76h-39.84v40.76h-16.08V5.91h16.08Z" fill="#003a96" stroke-width="0"/><path d="M1665.92,97.74c-20.28,0-32.16-11.75-32.16-34.52s11.64-34.76,32.4-34.76,32.16,11.75,32.16,34.52-11.64,34.76-32.4,34.76ZM1681.51,63.09c0-14.86-4.92-23.38-15.48-23.38s-15.48,9.23-15.48,23.38c0,14.86,4.92,23.38,15.48,23.38s15.48-9.23,15.48-23.38Z" fill="#003a96" stroke-width="0"/><path d="M1750.39,44.27h-.96s-8.4-3.36-15.84-3.36c-6.72,0-9.84,2.64-9.84,5.99,0,10.19,29.76,7.19,29.76,29.97,0,14.03-11.16,20.14-27,20.14-11.4,0-18.6-3.12-18.6-3.12v-12.71h.96s10.08,4.08,18.48,4.08c7.2,0,10.32-2.88,10.32-6.71,0-11.87-29.76-8.39-29.76-29.85,0-11.99,9.36-19.54,26.04-19.54,9.36,0,16.44,2.4,16.44,2.4v12.71Z" fill="#003a96" stroke-width="0"/><path d="M1766.47,119.55V30.13h12.24l3.12,11.03c2.04-7.55,8.88-12.47,19.8-12.47,18.36,0,27.96,13.91,27.96,34.04s-9.84,34.76-29.04,34.76c-9.6,0-15.84-3.6-18.48-11.27v33.33h-15.6ZM1812.79,63.09c0-13.07-4.32-22.42-15.48-22.42s-15.48,9.47-15.48,22.54,4.32,22.3,15.48,22.3,15.48-9.35,15.48-22.42Z" fill="#003a96" stroke-width="0"/><path d="M1859.83,11.43c0,5.28-3.84,9.35-9.48,9.35s-9.48-4.08-9.48-9.35,3.84-9.35,9.48-9.35c5.64,0,9.48,4.08,9.48,9.35ZM1858.15,30.13v65.93h-15.6V30.13h15.6Z" fill="#003a96" stroke-width="0"/><path d="M1913.83,95.58s-5.04,1.44-12,1.44c-9.12,0-15.6-2.4-18.96-7.43-2.88-4.44-2.88-10.07-2.88-17.02v-29.97h-12v-11.51h12V14.06l15.6-4.56v21.58h18.24v11.51h-18.24v29.73c0,4.31,0,7.43,1.44,9.83,1.44,2.4,4.08,3.12,7.08,3.12,4.68,0,8.76-1.68,8.76-1.68h.96v11.99Z" fill="#003a96" stroke-width="0"/><path d="M1928.23,32.05s8.16-2.88,21.12-2.88c9.84,0,18.72,1.68,23.28,8.15,3.6,5.04,3.6,11.75,3.6,17.74v22.54c0,2.76,0,7.67,5.64,7.67,1.8,0,3.48-.48,3.48-.48v11.03s-3.6.96-8.4.96c-8.4,0-13.68-2.88-14.64-11.75-2.4,7.67-9.84,11.99-19.44,11.99-12.96,0-21.12-7.91-21.12-19.78,0-14.26,11.76-21.22,32.64-21.22,3.84,0,6.24.24,6.24.24,0-5.51,0-8.15-1.92-11.03-1.92-2.76-5.16-4.32-11.64-4.32-9.48,0-17.88,3.36-17.88,3.36h-.96v-12.23ZM1947.31,85.27c4.68,0,9-2.16,11.16-6.23,2.16-4.08,2.16-8.87,2.16-11.51v-1.44h-3.6c-6.96,0-18.96,0-18.96,10.31,0,5.27,3.12,8.87,9.24,8.87Z" fill="#003a96" stroke-width="0"/><path d="M2010.91,2.56v93.5h-15.6V2.56h15.6Z" fill="#003a96" stroke-width="0"/><polygon points="18.9 75.75 0 75.75 0 107.82 0 136.87 18.9 136.87 18.9 75.75" fill="#009ca6" stroke-width="0"/><polygon points="40.6 75.75 40.6 107.82 40.6 136.87 59.51 136.87 59.51 75.75 40.6 75.75" fill="#009ca6" stroke-width="0"/><polygon points="81.21 75.75 81.21 107.82 81.21 136.87 100.11 136.87 100.11 75.75 81.21 75.75" fill="#009ca6" stroke-width="0"/><polygon points="0 64.31 70.36 64.31 140.71 64.31 140.71 47.09 0 47.09 0 64.31" fill="#009ca6" stroke-width="0"/><polygon points="70.36 0 0 23.45 0 41.23 70.36 17.78 140.71 41.23 140.71 23.45 70.36 0" fill="#009ca6" stroke-width="0"/><path d="M140.71,135.51c-.37,1.03-7.19,12.8-52.12,12.8h-36.48c-46.08.35-51.24,6.35-52.12,6.99v17.59c.88-.64,6.04-6.64,52.12-6.99h36.48c44.92,0,51.74-11.77,52.12-12.8v-17.59Z" fill="#009ca6" stroke-width="0"/><path d="M140.71,164.82c-.37,1.03-7.19,12.8-52.12,12.8h-36.48c-46.08.35-51.24,6.35-52.12,6.99v17.59c.88-.64,6.04-6.64,52.12-6.99h36.48c44.92,0,51.74-11.77,52.12-12.8v-17.59Z" fill="#009ca6" stroke-width="0"/><path d="M121.81,75.75v57.97c15.5-3.56,18.65-9.06,18.9-9.75v-48.22h-18.9Z" fill="#009ca6" stroke-width="0"/></svg>